<?xml version="1.0" encoding="UTF-8" standalone="no"?>
<svg
   xmlns:dc="http://purl.org/dc/elements/1.1/"
   xmlns:cc="http://creativecommons.org/ns#"
   xmlns:rdf="http://www.w3.org/1999/02/22-rdf-syntax-ns#"
   xmlns:svg="http://www.w3.org/2000/svg"
   xmlns="http://www.w3.org/2000/svg"
   xmlns:sodipodi="http://sodipodi.sourceforge.net/DTD/sodipodi-0.dtd"
   xmlns:inkscape="http://www.inkscape.org/namespaces/inkscape"
   id="Layer_1"
   data-name="Layer 1"
   viewBox="0 0 412.54 344.66"
   version="1.1"
   sodipodi:docname="pawr.svg"
   inkscape:version="0.92.4 (5da689c313, 2019-01-14)">
  <metadata
     id="metadata1359">
    <rdf:RDF>
      <cc:Work
         rdf:about="">
        <dc:format>image/svg+xml</dc:format>
        <dc:type
           rdf:resource="http://purl.org/dc/dcmitype/StillImage" />
      </cc:Work>
    </rdf:RDF>
  </metadata>
  <sodipodi:namedview
     pagecolor="#ffffff"
     bordercolor="#666666"
     borderopacity="1"
     objecttolerance="10"
     gridtolerance="10"
     guidetolerance="10"
     inkscape:pageopacity="0"
     inkscape:pageshadow="2"
     inkscape:window-width="1440"
     inkscape:window-height="769"
     id="namedview1357"
     showgrid="false"
     inkscape:zoom="1.6421981"
     inkscape:cx="206.27"
     inkscape:cy="172.33"
     inkscape:window-x="0"
     inkscape:window-y="1"
     inkscape:window-maximized="1"
     inkscape:current-layer="Layer_1" />
  <defs
     id="defs1318">
    <style
       id="style1316">.cls-1{fill:#fff;}</style>
  </defs>
  <title
     id="title1320">Vertical</title>
  <polygon
     class="cls-1"
     points="257.03 101.74 257.19 101.86 257.2 101.84 257.03 101.74"
     id="polygon1322"
     style="fill:#b2161f;fill-opacity:1" />
  <path
     class="cls-1"
     d="M16.58,9.06V19.45L0,10V41.43A282.7,282.7,0,0,1,48.66,9.06Z"
     id="path1324"
     style="fill:#b2161f;fill-opacity:1" />
  <path
     class="cls-1"
     d="M186.37,225.12a35.71,35.71,0,0,0-4.88-.34,36.36,36.36,0,0,0-17.32,4.36l2.33,3.7,22.26,5.09-3.61-11.83Z"
     id="path1326"
     style="fill:#b2161f;fill-opacity:1" />
  <path
     class="cls-1"
     d="M155.88,216a52.17,52.17,0,0,1,45.28-2.87l19.93-16.2,20.84,9.61H244a83.68,83.68,0,0,0-28.47-21,83.1,83.1,0,0,0-87,11.8l9.82,13.39,9.28-7.85L155.88,216h0"
     id="path1328"
     style="fill:#b2161f;fill-opacity:1" />
  <path
     class="cls-1"
     d="M196.71,132.48A129.62,129.62,0,0,0,75,187.2h22v-5.08h20.32l1.92,2.63.16-.13a98.29,98.29,0,0,1,62-22,99.87,99.87,0,0,1,11.92.72,98.82,98.82,0,0,1,66.77,38.44v-8.56h31.76l-.54-.84A130,130,0,0,0,196.71,132.48Z"
     id="path1330"
     style="fill:#b2161f;fill-opacity:1" />
  <path
     class="cls-1"
     d="M331.71,169l0,0a176.27,176.27,0,0,0-81.52-70A176.43,176.43,0,0,0,56.75,136.64,175.25,175.25,0,0,0,30,171v.9H54.14l7.39,7.48q2.72-3.94,5.69-7.71A145.25,145.25,0,0,1,309,191.58h12l7.62,30.49,19.68,13.13v-24L327.68,173Z"
     id="path1332"
     style="fill:#b2161f;fill-opacity:1" />
  <path
     class="cls-1"
     d="M339.19,103.69a221.26,221.26,0,0,0-57.3-41.44V66l-9.61,4.94-10.67-8.17V53.26c-1.57-.61-3.14-1.19-4.73-1.76A223,223,0,0,0,23.8,103.69,224.27,224.27,0,0,0,7.17,122.27L19,147.61V152L22.35,154c.48-.72,1-1.43,1.47-2.14A192,192,0,0,1,343,157.65l16.39-16.42V126.89c-1.2-1.58-2.43-3.13-3.67-4.68A224.1,224.1,0,0,0,339.19,103.69Z"
     id="path1334"
     style="fill:#b2161f;fill-opacity:1" />
  <path
     class="cls-1"
     d="M281.89,45q5.25,2.43,10.35,5.11c3.85,2,7.65,4.13,11.37,6.35v-11h-8.23V32.11h-3l-10.48,9.48Z"
     id="path1336"
     style="fill:#b2161f;fill-opacity:1" />
  <path
     class="cls-1"
     d="M88.56,41.67A239.1,239.1,0,0,1,225.14,26.83L236,9.06H86.51q-5.06,1.89-10.05,4A268.36,268.36,0,0,0,0,62v44.57c1.47-1.72,3-3.41,4.49-5.09q4-4.47,8.32-8.77A237.56,237.56,0,0,1,88.56,41.67Z"
     id="path1338"
     style="fill:#b2161f;fill-opacity:1" />
  <path
     class="cls-1"
     d="M261.61,36.69v-.1l21.62-20.27H272l-7.16,10.29H251.22V19.23l-7.11,8.12H227.83A236.61,236.61,0,0,1,261.61,36.69Z"
     id="path1340"
     style="fill:#b2161f;fill-opacity:1" />
  <path
     class="cls-1"
     d="M347.17,48.65h-13l-5.56,6.55L319,66.45A238.93,238.93,0,0,1,350.18,92.7q7.24,7.24,13.8,15h2.69V103L363.25,85.7l9.42,3.42V71.28c-.17-.18-.34-.36-.52-.53A270,270,0,0,0,347.17,48.65Z"
     id="path1342"
     style="fill:#b2161f;fill-opacity:1" />
  <path
     class="cls-1"
     d="M393.8,40.06,400,32.84q-5.35-5.13-10.94-10l-25.3,0-.48,1-6.38,12.77a288.19,288.19,0,0,1,26.19,23.18c.76.75,1.52,1.52,2.28,2.29l4.68-1.47,0,0,5.28-3.38,1.19-3.09-2.31,2.31h-2.17V42Z"
     id="path1344"
     style="fill:#b2161f;fill-opacity:1" />
  <path
     class="cls-1"
     d="M406.12,12.07V0h-3.38l-3.59,11q5.63,4.9,11.06,10.08l2.33-2.68V12.07Z"
     id="path1346"
     style="fill:#b2161f;fill-opacity:1" />
  <path
     class="cls-1"
     d="M73.4,322.46v22.2H58v-66.4H81.42a38.52,38.52,0,0,1,12,1.67,23.13,23.13,0,0,1,8.3,4.58,17.74,17.74,0,0,1,4.8,6.88,23.17,23.17,0,0,1,1.55,8.56,25.28,25.28,0,0,1-1.59,9.12,18.42,18.42,0,0,1-4.88,7.11,23,23,0,0,1-8.31,4.62,38.12,38.12,0,0,1-11.92,1.66Zm0-11.62h8c4,0,6.9-.95,8.66-2.87s2.64-4.58,2.64-8a12.11,12.11,0,0,0-.68-4.14A8.49,8.49,0,0,0,90,292.59a9.38,9.38,0,0,0-3.5-2.07,15.77,15.77,0,0,0-5-.73h-8Z"
     id="path1348"
     style="fill:#b2161f;fill-opacity:1" />
  <path
     class="cls-1"
     d="M174.74,344.66H162.8a5.55,5.55,0,0,1-3.3-.94,4.77,4.77,0,0,1-1.8-2.39l-3.92-11.58H128.54l-3.92,11.58a5.3,5.3,0,0,1-5,3.33h-12l25.7-66.4H149Zm-42.65-25.39h18.14l-6.11-18.18c-.39-1.15-.86-2.51-1.39-4.08s-1.06-3.25-1.57-5.08c-.49,1.86-1,3.57-1.5,5.15s-1,2.95-1.46,4.1Z"
     id="path1350"
     style="fill:#b2161f;fill-opacity:1" />
  <path
     class="cls-1"
     d="M174.2,278.26h12.94a5.92,5.92,0,0,1,3.35.91,4.2,4.2,0,0,1,1.75,2.42l9.11,34.63c.31,1.13.61,2.33.91,3.6a31,31,0,0,1,.69,4c.3-1.43.64-2.77,1-4s.71-2.45,1.05-3.58l10.75-34.63a4.79,4.79,0,0,1,1.76-2.3,5.22,5.22,0,0,1,3.25-1h4.56a5.71,5.71,0,0,1,3.3.89,4.57,4.57,0,0,1,1.8,2.44l10.67,34.63,1,3.4c.36,1.2.68,2.48,1,3.85.24-1.34.5-2.62.75-3.83s.53-2.35.8-3.42l9.11-34.63a4.36,4.36,0,0,1,1.74-2.32,5.38,5.38,0,0,1,3.28-1h12.12l-20.51,66.4H236.44L224,303.51q-.31-1-.66-2.1c-.22-.76-.45-1.56-.66-2.41-.21.85-.43,1.65-.66,2.41s-.45,1.46-.66,2.1l-12.67,41.15H194.7Z"
     id="path1352"
     style="fill:#b2161f;fill-opacity:1" />
  <path
     class="cls-1"
     d="M296.77,320.09v24.57h-15.4v-66.4H303a44.2,44.2,0,0,1,12.28,1.49,22.91,22.91,0,0,1,8.29,4.12,15.58,15.58,0,0,1,4.67,6.24,21.8,21.8,0,0,1,.59,13.94,18.14,18.14,0,0,1-2.57,5.31,19.82,19.82,0,0,1-4.19,4.35,22.17,22.17,0,0,1-5.72,3.15,14.47,14.47,0,0,1,2.89,1.91,11.43,11.43,0,0,1,2.35,2.78l14.13,23.11H321.74a5.94,5.94,0,0,1-5.56-2.92l-11-19.28a4.73,4.73,0,0,0-1.71-1.82,5.81,5.81,0,0,0-2.76-.55Zm0-10.61H303a15.87,15.87,0,0,0,5.35-.8,9.72,9.72,0,0,0,3.63-2.21,8.33,8.33,0,0,0,2-3.3,12.55,12.55,0,0,0,.64-4.08,8.55,8.55,0,0,0-2.85-6.84q-2.83-2.46-8.81-2.46h-6.2Z"
     id="path1354"
     style="fill:#b2161f;fill-opacity:1" />
</svg>
